<svg width="1735" height="781" viewBox="0 0 1735 781" fill="none" xmlns="http://www.w3.org/2000/svg">
<path d="M390.32 193.72C439.16 193.72 483.84 211.53 518.22 241.01C524.72 246.58 534.35 246.31 540.4 240.25L654.51 126.14C661.14 119.51 660.77 108.74 653.86 102.4C584.42 38.81 491.9 0 390.32 0C283.17 0 186.12 43.21 115.59 113.11L252.57 250.09C288.04 215.24 336.66 193.72 390.32 193.72Z" fill="#50723B"/>
<path d="M401.291 401.3L666.321 666.33C733.201 599.45 775.921 508.41 780.281 407.43C780.681 398.13 773.351 390.33 764.041 390.33C655.511 390.33 498.271 390.34 405.651 390.6C400.071 390.61 397.351 397.36 401.291 401.3Z" fill="#77D851"/>
<path d="M193.71 390.33C193.71 335.41 216.25 285.77 252.57 250.09L115.59 113.12C44.23 183.85 0 281.92 0 390.33C0 498.75 44.23 596.81 115.59 667.54L252.57 530.56C216.25 494.89 193.71 445.25 193.71 390.33Z" fill="#669B4B"/>
<path d="M390.318 586.94C336.658 586.94 288.038 565.42 252.558 530.56L115.578 667.54C186.118 737.45 283.158 780.65 390.308 780.65C390.318 780.65 390.338 780.65 390.348 780.65L390.488 586.93C390.438 586.94 390.378 586.94 390.318 586.94Z" fill="#50723B"/>
<path d="M529.342 529.35C493.802 564.89 444.711 586.88 390.491 586.93L390.352 780.65C498.122 780.64 595.692 736.95 666.312 666.33L529.342 529.35Z" fill="#608C46"/>
<path d="M804.491 87.0801L804.461 457.04C804.461 461.54 808.111 465.19 812.611 465.19H944.071C948.571 465.19 952.221 461.54 952.221 457.04L952.241 226.16L807.161 81.0801C805.521 82.5701 804.491 84.7001 804.491 87.0801Z" fill="#82C261"/>
<path d="M944.091 78.9399H812.631C810.511 78.9399 808.591 79.75 807.141 81.08L952.221 226.16L952.231 87.0899C952.241 82.5899 948.591 78.9399 944.091 78.9399Z" fill="#669B4B"/>
<path d="M1586.93 272.15C1586.93 286.06 1581.29 298.65 1572.18 307.76L1676.71 412.29C1712.57 376.43 1734.76 326.88 1734.76 272.15C1734.76 217.42 1712.58 167.88 1676.71 132.01L1572.19 236.55C1581.3 245.66 1586.93 258.25 1586.93 272.15Z" fill="#82C261"/>
<path d="M1536.58 221.8C1550.48 221.8 1563.07 227.44 1572.19 236.55L1676.72 132.02C1640.86 96.15 1591.31 73.97 1536.58 73.97C1481.85 73.97 1432.31 96.15 1396.44 132.02L1500.97 236.55C1510.08 227.43 1522.67 221.8 1536.58 221.8Z" fill="#669B4B"/>
<path d="M1676.72 412.29L1572.19 307.76C1563.08 316.87 1550.49 322.51 1536.58 322.51C1522.67 322.51 1510.09 316.87 1500.97 307.76L1396.44 412.29C1432.3 448.15 1481.85 470.34 1536.58 470.34C1591.31 470.34 1640.85 448.15 1676.72 412.29Z" fill="#608C46"/>
<path d="M1486.22 272.15C1486.22 258.25 1491.86 245.66 1500.97 236.54L1396.44 132.01C1360.58 167.87 1338.39 217.42 1338.39 272.15C1338.39 326.88 1360.57 376.42 1396.44 412.29L1500.97 307.76C1491.86 298.65 1486.22 286.06 1486.22 272.15Z" fill="#82C261"/>
<path d="M992.789 89.1699L992.889 457.6C992.889 462.1 996.539 465.75 1001.04 465.75H1132.47C1136.97 465.75 1140.62 462.1 1140.62 462.09V275.17C1140.62 259.08 1148.73 247.05 1154.68 240.22L996.169 81.6899C994.089 83.5199 992.789 86.1999 992.789 89.1699Z" fill="#82C261"/>
<path d="M1160.38 234.3L1277.74 116.94C1251.2 90.39 1214.54 73.97 1174.04 73.97C1140.3 73.97 1032.35 77.9 1002.3 79.22C999.938 79.32 997.798 80.24 996.148 81.7L1154.66 240.21C1157.29 237.2 1159.49 235.2 1160.38 234.3Z" fill="#669B4B"/>
<path d="M1336.35 453.41L1246.45 363.41C1258.23 357.44 1268.89 350.04 1277.7 341.24C1304.25 314.71 1320.67 280.32 1320.67 231.26C1320.67 182.97 1304.27 143.46 1277.75 116.93L1163.61 231.07C1169.08 236.65 1172.46 244.29 1172.46 252.72C1172.46 261.26 1169 268.99 1163.4 274.59C1157.8 280.19 1150.07 283.65 1141.53 283.65C1141.23 283.65 1140.93 283.64 1140.63 283.63L1140.76 440.47L1158.96 461.88C1161.43 464.35 1164.78 465.74 1168.28 465.74L1331.29 465.66C1337.67 465.66 1340.87 457.93 1336.35 453.41Z" fill="#608C46"/>
<path d="M1713.22 520.63V693.91C1713.22 698.07 1709.85 701.45 1705.68 701.45H1671.79C1667.63 701.45 1664.26 698.08 1664.26 693.91V520.63C1664.26 516.47 1667.63 513.09 1671.79 513.09H1705.69C1709.85 513.09 1713.22 516.46 1713.22 520.63Z" fill="#1D4600"/>
<path d="M1535.93 507.84C1481.02 507.84 1436.51 552.35 1436.51 607.26C1436.51 662.17 1481.02 706.68 1535.93 706.68C1590.84 706.68 1635.35 662.17 1635.35 607.26C1635.36 552.35 1590.85 507.84 1535.93 507.84ZM1535.93 659.98C1506.82 659.98 1483.22 636.38 1483.22 607.27C1483.22 578.16 1506.82 554.56 1535.93 554.56C1565.04 554.56 1588.64 578.16 1588.64 607.27C1588.64 636.38 1565.05 659.98 1535.93 659.98Z" fill="#1D4600"/>
<path d="M1271.47 520.63C1271.47 516.47 1274.84 513.1 1279 513.1H1344.41C1361.73 513.1 1374.88 517.26 1383.88 525.59C1392.87 533.92 1397.37 545.91 1397.37 561.56C1397.37 571.05 1395.66 578.92 1392.25 585.17C1388.84 591.41 1383.63 596.71 1376.64 601.03C1383.64 602.36 1389.59 604.4 1394.5 607.15C1399.41 609.9 1403.41 613.27 1406.49 617.27C1409.57 621.27 1411.77 625.76 1413.11 630.76C1414.44 635.75 1415.11 641.09 1415.11 646.75C1415.11 655.58 1413.57 663.41 1410.49 670.23C1407.41 677.06 1403.08 682.8 1397.5 687.47C1391.92 692.13 1385.14 695.63 1377.14 697.96C1369.15 700.29 1360.15 701.46 1350.16 701.46H1279.01C1274.85 701.46 1271.48 698.09 1271.48 693.92V520.63H1271.47ZM1320.44 583.86C1320.44 585.61 1321.86 587.03 1323.61 587.03H1329.43C1344.75 587.03 1352.41 580.95 1352.41 568.79C1352.41 556.64 1344.75 550.56 1329.43 550.56H1323.61C1321.86 550.56 1320.44 551.98 1320.44 553.73V583.86ZM1320.44 660.3C1320.44 662.05 1321.86 663.47 1323.61 663.47H1331.18C1343.5 663.47 1352.33 661.89 1357.66 658.72C1362.99 655.56 1365.65 650.48 1365.65 643.48C1365.65 636.49 1362.98 631.41 1357.66 628.24C1352.33 625.08 1343.5 623.49 1331.18 623.49H1323.61C1321.86 623.49 1320.44 624.91 1320.44 626.66V660.3Z" fill="#1D4600"/>
<path d="M1094.11 507.84C1039.2 507.84 994.691 552.35 994.691 607.26C994.691 662.17 1039.2 706.68 1094.11 706.68C1149.02 706.68 1193.53 662.17 1193.53 607.26C1193.53 552.35 1149.02 507.84 1094.11 507.84ZM1094.11 659.98C1065 659.98 1041.4 636.38 1041.4 607.27C1041.4 578.16 1065 554.56 1094.11 554.56C1123.22 554.56 1146.82 578.16 1146.82 607.27C1146.82 636.38 1123.22 659.98 1094.11 659.98Z" fill="#1D4600"/>
<path d="M804.469 519.71C804.469 515.55 807.839 512.17 811.999 512.17H876.909C889.729 512.17 901.759 514.75 913.009 519.91C924.249 525.08 934.069 531.94 942.489 540.52C950.899 549.1 957.519 559.09 962.349 570.5C968.939 586.07 971.039 602.66 968.629 620.25C968.089 624.2 967.229 628.11 966.069 631.92C961.309 647.57 953.529 660.94 942.739 672.05C934.329 680.71 924.499 687.62 913.259 692.79C902.019 697.95 889.899 700.53 876.909 700.53H811.999C807.839 700.53 804.469 697.16 804.469 693V519.71ZM853.429 655.89C853.429 657.64 854.849 659.06 856.599 659.06H864.669C873.159 659.06 880.739 657.73 887.399 655.06C894.059 652.4 899.679 648.74 904.259 644.07C908.839 639.41 912.339 633.87 914.749 627.46C917.159 621.05 918.369 614.01 918.369 606.35C918.369 598.86 917.119 591.86 914.619 585.37C912.119 578.88 908.579 573.3 903.999 568.63C899.419 563.97 893.799 560.3 887.139 557.64C880.479 554.97 872.979 553.64 864.659 553.64H856.589C854.839 553.64 853.419 555.06 853.419 556.81V655.89H853.429Z" fill="#1D4600"/>
</svg>
